
<svg xmlns="http://www.w3.org/2000/svg" viewBox="0 0 48 48" fill="white" width="50" height="50">
  <path fill="white" fill-rule="evenodd" d="M24 12C20 12 17.333 14 16 18C17.333 16 18.889 15.333 20.667 16C21.78 16.444 22.495 17.345 23.422 18.422C24.995 20.266 26.872 22.5 32 22.5C36 22.5 38.667 20.5 40 16.5C38.667 18.5 37.111 19.167 35.333 18.5C34.22 18.056 33.505 17.155 32.578 16.078C31.005 14.234 29.128 12 24 12ZM8 24C4 24 1.333 26 0 30C1.333 28 2.889 27.333 4.667 28C5.78 28.444 6.495 29.345 7.422 30.422C8.995 32.266 10.872 34.5 16 34.5C20 34.5 22.667 32.5 24 28.5C22.667 30.5 21.111 31.167 19.333 30.5C18.22 30.056 17.505 29.155 16.578 28.078C15.005 26.234 13.128 24 8 24Z" clip-rule="evenodd"/>
</svg>
